<svg xmlns="http://www.w3.org/2000/svg" width="52.13mm" height="23.43mm" viewBox="0 0 147.77 66.41">
  <defs>
    <style>
      .a {
        fill: #f5a05f;
      }
    </style>
  </defs>
  <title>logo-deim-service</title>
  <g>
    <path class="a" d="M147.28,19c-.67-.66-21.78-.66-22.44,0s-5.61,15.21-5.7,15.29-.61.16-.77,0-5-14.63-5.71-15.29-21.77-.66-22.43,0-.66,37.37,0,38,16.83.66,17.49,0,0-15.1,0-15.44-1.22-5.3-1.14-5.38a1.23,1.23,0,0,1,.76,0c.08.08,4.67,12.24,5.32,12.91s11.52.66,12.18,0,5.25-12.83,5.33-12.91a1.23,1.23,0,0,1,.76,0c.07.08-1.1,5.05-1.15,5.38s-.66,14.78,0,15.44,16.83.66,17.5,0S147.94,19.67,147.28,19Z"/>
    <path class="a" d="M.5,41.83c.33-.33,5-.66,5.7-.66,0-1,8.56-36,9.89-37.37.66-.66,30.13-.66,30.8,0,1.32,1.33,9.5,36.37,9.5,37.36.66,0,5.38.34,5.71.67.66.66.66,23.67,0,24.33-.34.33-17.16.33-17.5,0s-1-8.79-.66-9.12c-.66.66-24.63.66-25.29,0,.33.33-.33,8.79-.66,9.12S.83,66.49.5,66.16C-.17,65.5-.17,42.49.5,41.83Zm38,0c.33-.33-5-22.48-5.32-22.82a7.42,7.42,0,0,0-3.8,0c-.34.33-6,22.49-5.71,22.82S38.19,42.16,38.52,41.83Z"/>
    <path class="a" d="M65.9,19c.66-.66,16.83-.66,17.49,0s.66,37.37,0,38-16.83.66-17.49,0S65.23,19.67,65.9,19Z"/>
    <rect class="a" x="118.21" y="34.14" width="0.16" height="0.16"/>
    <rect class="a" x="118.37" y="34.3" width="0.17" height="0.17"/>
    <rect class="a" x="119.13" y="34.13" width="0.17" height="0.17" transform="translate(153.43 -85) rotate(90)"/>
    <rect class="a" x="118.97" y="34.3" width="0.17" height="0.17" transform="translate(153.43 -84.67) rotate(90)"/>
    <ellipse class="a" cx="74.64" cy="7.99" rx="9.13" ry="7.99"/>
  </g>
</svg>
